<?xml version="1.0" encoding="UTF-8"?>
<svg version="1.1" xmlns="http://www.w3.org/2000/svg" viewBox="-290 0 600 325" >
<path d="M0 0 C0.66 0 1.32 0 2 0 C2 0.66 2 1.32 2 2 C2.5671875 2.27972656 3.134375 2.55945313 3.71875 2.84765625 C17.01933381 9.56627307 27.26858875 18.998801 36 31 C36.64710938 31.88171875 37.29421875 32.7634375 37.9609375 33.671875 C43.24282314 41.09400426 48.08963576 48.79018525 52.9375 56.5 C53.60080322 57.5513916 54.26410645 58.6027832 54.94750977 59.68603516 C55.57197998 60.68683105 56.1964502 61.68762695 56.83984375 62.71875 C57.68083618 64.06356445 57.68083618 64.06356445 58.53881836 65.43554688 C59.94499248 67.90345881 61.0159894 70.3392497 62 73 C62.64324219 73.03738281 63.28648437 73.07476562 63.94921875 73.11328125 C93.14306432 75.23722722 121.48427475 89.59669187 146.01464844 104.77929688 C148.00987454 106.00607141 150.02187339 107.20037628 152.0390625 108.390625 C175.39100249 122.3305199 195.69823893 141.52804644 210.5 164.375 C213.74654955 169.17014583 217.80772227 171.95990597 222.5390625 175.20703125 C227.74546995 179.00027097 229.5952933 183.57124302 230.75 189.6953125 C231.25848807 194.3829369 231.01977139 198.48922757 228.3125 202.5 C226.7580847 205.46079105 227.04479625 206.05443866 227.91796875 209.15625 C228.27503906 210.4246875 228.63210938 211.693125 229 213 C230.10859375 212.41089844 231.2171875 211.82179687 232.359375 211.21484375 C233.8225891 210.45509797 235.28614902 209.69601794 236.75 208.9375 C237.47960937 208.54755859 238.20921875 208.15761719 238.9609375 207.75585938 C240.02441406 207.20961914 240.02441406 207.20961914 241.109375 206.65234375 C242.08342285 206.14175415 242.08342285 206.14175415 243.07714844 205.62084961 C245.51965696 204.83221335 246.65703245 204.96428819 249 206 C250.28027344 207.67407227 250.28027344 207.67407227 251.359375 209.81640625 C251.75253906 210.58017578 252.14570313 211.34394531 252.55078125 212.13085938 C252.94652344 212.93330078 253.34226562 213.73574219 253.75 214.5625 C254.16121094 215.36880859 254.57242187 216.17511719 254.99609375 217.00585938 C256.00985518 218.99801846 257.01039352 220.99576178 258 223 C255.63456284 225.36543716 253.42932795 226.27541323 250.375 227.625 C249.37210937 228.07101563 248.36921875 228.51703125 247.3359375 228.9765625 C246.56507813 229.31429687 245.79421875 229.65203125 245 230 C244.98582031 231.02996094 244.97164063 232.05992187 244.95703125 233.12109375 C244.51917515 248.84478584 241.55369776 265.43802658 230.125 277.125 C229.42375 277.74375 228.7225 278.3625 228 279 C230.97 278.67 233.94 278.34 237 278 C241.40774487 287.41002278 241.40774487 287.41002278 242 292 C234.55751128 294.01830203 227.68673197 294.19850958 220 294 C219.34 294 218.68 294 218 294 C223.59038243 296.79894315 228.22634137 297.51232631 234.4375 297.6875 C235.26443359 297.72166016 236.09136719 297.75582031 236.94335938 297.79101562 C238.96178944 297.87268621 240.98086884 297.93803724 243 298 C243 298.66 243 299.32 243 300 C241.63875 300.309375 241.63875 300.309375 240.25 300.625 C236.6372343 301.63016465 233.55284774 303.23676097 230.25 305 C222.99983509 308.70664681 215.18430745 311.04071051 206.98046875 309.6875 C203.60006498 308.5140265 200.84459644 306.48380906 197.98046875 304.375 C195.94827796 302.82649345 195.94827796 302.82649345 193 302 C190.41320932 302.88291797 190.41320932 302.88291797 187.59375 304.2421875 C181.32620537 306.96401736 175.16405485 308.67558831 168.5 310.125 C167.50097656 310.36347656 166.50195312 310.60195313 165.47265625 310.84765625 C143.25153801 315.78271852 120.65882984 316.46535268 98 315.875 C95.41399145 315.82119726 92.82797225 315.76790423 90.24194336 315.71508789 C75.0195058 315.37198487 59.84921173 314.64941504 44.65777588 313.6423645 C23.40339196 312.23561792 2.20086387 311.5836291 -19.09508133 311.45543289 C-21.35003755 311.43769634 -23.60456054 311.40845877 -25.85934448 311.3757019 C-29.43108723 311.32540663 -33.00168241 311.30713865 -36.57376289 311.31234741 C-38.50722884 311.30874058 -40.44057883 311.27679636 -42.37376404 311.24365234 C-51.97778847 311.31684653 -58.4924079 313.899485 -67 318 C-82.40673327 324.24049899 -99.50696863 323.96289356 -115 318 C-120.47508235 315.44784536 -125.62781106 312.4792485 -130.75 309.28515625 C-136.40330289 305.76045978 -141.42514479 302.7624447 -148.33203125 303.12109375 C-152.10981123 304.36560399 -154.56237838 306.80021269 -157.375 309.5 C-157.94718262 310.03592773 -158.51936523 310.57185547 -159.10888672 311.12402344 C-163.08552305 314.92108432 -166.5208261 318.90607751 -169.6328125 323.453125 C-170.08398438 323.96359375 -170.53515625 324.4740625 -171 325 C-171.99 325 -172.98 325 -174 325 C-174.680625 323.8553125 -174.680625 323.8553125 -175.375 322.6875 C-177.21498538 319.64444726 -178.87871115 318.602824 -182 317 C-184.64 318.65 -187.28 320.3 -190 322 C-189 318 -189 318 -186 316 C-186.85991869 310.15255288 -191.74690651 306.68772758 -196 303 C-204.57853048 296.76868959 -214.74285354 292.56428661 -225 290 C-225 289.34 -225 288.68 -225 288 C-218.25 284 -218.25 284 -216 284 C-216 283.34 -216 282.68 -216 282 C-216.71671875 281.90589844 -217.4334375 281.81179688 -218.171875 281.71484375 C-227.32713573 279.40073779 -235.65763966 270.45400368 -241 263 C-250.55797612 246.79741979 -252.99292991 229.7598643 -248.4375 211.25 C-245.15293226 200.06409449 -238.44876171 190.95755463 -230 183 C-229.01 182.67 -228.02 182.34 -227 182 C-227 181.34 -227 180.68 -227 180 C-225.00904348 178.4876093 -223.00965884 177.08108435 -220.9375 175.6875 C-210.81362918 168.67556013 -201.79282251 160.45211198 -192.6875 152.1875 C-180.60084804 141.27373038 -167.70589147 132.32160871 -153.40820312 124.61230469 C-148.39439178 121.87651702 -143.8739958 118.91927416 -139.53125 115.1796875 C-138 114 -138 114 -136 114 C-136 117.96 -136 121.92 -136 126 C-133.36 126.99 -130.72 127.98 -128 129 C-128.53445424 131.13781698 -129.08642351 133.27367446 -129.75 135.375 C-130.09054934 138.95076806 -128.77199112 140.95217528 -127 144 C-126.16275391 142.89011719 -126.16275391 142.89011719 -125.30859375 141.7578125 C-123.05534366 139.06611273 -120.80976748 137.04802661 -118.0625 134.875 C-114.00587257 131.63821591 -110.07942886 128.30725222 -106.1875 124.875 C-100.35554154 119.84165371 -94.10857416 115.46503804 -87.75 111.125 C-86.82727295 110.4944873 -85.9045459 109.86397461 -84.95385742 109.21435547 C-62.59890618 94.15852961 -36.30696891 82.05857466 -10 76 C-10.01047363 75.33991943 -10.02094727 74.67983887 -10.03173828 73.99975586 C-10.0735786 70.97904338 -10.09941471 67.95839213 -10.125 64.9375 C-10.15013672 63.37999023 -10.15013672 63.37999023 -10.17578125 61.79101562 C-10.21203088 56.08169913 -9.73087615 51.48110779 -8 46 C-7.54049909 42.88626748 -7.27044678 39.76017931 -7 36.625 C-6.50568419 30.94952223 -5.75351394 25.5248388 -4.44140625 19.97753906 C-3.76592766 16.95133519 -3.56138839 13.9326804 -3.34375 10.84765625 C-3 9 -3 9 -1 7 C-0.59952556 4.67724823 -0.2602896 2.34260643 0 0 Z M-117 301 C-113.07713834 304.92286166 -106.06892492 305.74978815 -100.65234375 306.19140625 C-99.10025386 306.18821921 -97.54849804 306.10557941 -96 306 C-96 305.34 -96 304.68 -96 304 C-98.56149628 303.49432271 -101.12399465 302.99529868 -103.6875 302.5 C-104.40873047 302.35691406 -105.12996094 302.21382813 -105.87304688 302.06640625 C-109.63841359 301.34428113 -113.14473813 300.8175024 -117 301 Z " fill="currentColor" />
</svg>
